<svg xmlns="http://www.w3.org/2000/svg" style="display: none;">
<!--
https://lucide.dev/icons/

S'ha de copiar el svg del icone que vulguis, fas un <symbol></symbol>, li ficas el path 
a dintre del contingut de symbol i les altres coses dintre de symbol + una id amb el nom
del svg.

Aixo en els arxius on vols que surti + lo del layout app per carregar els svg's
        <svg class="-mr-1 size-5 text-orange-500">
            <use xlink:href="#cheveron-down"></use>
        </svg>
-->

<!--||||||||||||||||||||||||||||||||||||||||||||||||||||||||||||| PROFESSIONAL |||||||||||||||||||||||||||||||||||||||||||||||||||||||||||||-->

<!--Cheveron Down-->
    <symbol id="cheveron-down" width="24" height="24" viewBox="0 0 24 24" fill="none" stroke="currentColor" stroke-width="2" stroke-linecap="round" stroke-linejoin="round" class="lucide lucide-chevron-down-icon lucide-chevron-down">
        <path d="m6 9 6 6 6-6"/>
    </symbol>

<!--File badge-->
    <symbol id="file-badge" width="24" height="24" viewBox="0 0 24 24" fill="none" stroke="currentColor" stroke-width="2" stroke-linecap="round" stroke-linejoin="round" class="lucide lucide-file-badge-icon lucide-file-badge">
        <path d="M13 22h5a2 2 0 0 0 2-2V8a2.4 2.4 0 0 0-.706-1.706l-3.588-3.588A2.4 2.4 0 0 0 14 2H6a2 2 0 0 0-2 2v3.3"/><path d="M14 2v5a1 1 0 0 0 1 1h5"/><path d="m7.69 16.479 1.29 4.88a.5.5 0 0 1-.698.591l-1.843-.849a1 1 0 0 0-.879.001l-1.846.85a.5.5 0 0 1-.692-.593l1.29-4.88"/><circle cx="6" cy="14" r="3"/>
    </symbol>


<!--file text-->
    <symbol id="file-text" width="24" height="24" viewBox="0 0 24 24" fill="none" stroke="currentColor" stroke-width="2" stroke-linecap="round" stroke-linejoin="round" class="lucide lucide-file-text-icon lucide-file-text">
        <path d="M6 22a2 2 0 0 1-2-2V4a2 2 0 0 1 2-2h8a2.4 2.4 0 0 1 1.704.706l3.588 3.588A2.4 2.4 0 0 1 20 8v12a2 2 0 0 1-2 2z"/><path d="M14 2v5a1 1 0 0 0 1 1h5"/><path d="M10 9H8"/><path d="M16 13H8"/><path d="M16 17H8"/>
    </symbol>
    
<!-- -->

<!-- -->

<!--||||||||||||||||||||||||||||||||||||||||||||||||||||||||||||| PROFESSIONAL |||||||||||||||||||||||||||||||||||||||||||||||||||||||||||||-->

<!-- -->

<!-- -->

</svg>